<svg width="32" height="32" viewBox="0 0 32 32" fill="none" xmlns="http://www.w3.org/2000/svg">
<rect width="32" height="32" rx="16" fill="#F7F7F7"/>
<path d="M14.09 21.2867V21.5908C14.09 22.645 14.945 23.5 16 23.5V23.5C17.055 23.5 17.91 22.645 17.91 21.59V21.2858" stroke="#323232" stroke-width="1.5" stroke-linecap="round" stroke-linejoin="round"/>
<path d="M17.5274 10.7925V10.0275C17.5274 9.18417 16.8441 8.5 15.9999 8.5V8.5C15.1557 8.5 14.4724 9.18417 14.4724 10.0275V10.7925" stroke="#323232" stroke-width="1.5" stroke-linecap="round" stroke-linejoin="round"/>
<path fill-rule="evenodd" clip-rule="evenodd" d="M11.4691 14.49V14.49C11.4691 12.4042 13.1599 10.7142 15.2449 10.7142H16.7558C18.8416 10.7142 20.5316 12.405 20.5316 14.49V14.49V16.8208C20.5316 17.2625 20.7074 17.6867 21.0199 17.9992L21.5541 18.5333C21.8666 18.8458 22.0424 19.27 22.0424 19.7117V19.7117C22.0424 20.5817 21.3374 21.2867 20.4674 21.2867H11.5333C10.6633 21.2867 9.95825 20.5817 9.95825 19.7117V19.7117C9.95825 19.27 10.1341 18.8458 10.4466 18.5333L10.9808 17.9992C11.2933 17.6867 11.4691 17.2625 11.4691 16.8208V14.49Z" stroke="#323232" stroke-width="1.5" stroke-linecap="round" stroke-linejoin="round"/>
</svg>
