<svg width="24" height="24" viewBox="0 0 24 24" fill="none" xmlns="http://www.w3.org/2000/svg">
<path d="M7 11.5V16.5" stroke="#929699" stroke-width="1.5" stroke-linecap="round" stroke-linejoin="round"/>
<path fill-rule="evenodd" clip-rule="evenodd" d="M17 17.8889V10.1111C17 8.39289 15.6071 7 13.8889 7H6.11111C4.39289 7 3 8.39289 3 10.1111V17.8889C3 19.6071 4.39289 21 6.11111 21H13.8889C14.714 21 15.5053 20.6722 16.0888 20.0888C16.6722 19.5053 17 18.714 17 17.8889Z" stroke="#929699" stroke-width="1.5" stroke-linecap="round" stroke-linejoin="round"/>
<path d="M10 16.5V15" stroke="#929699" stroke-width="1.5" stroke-linecap="round" stroke-linejoin="round"/>
<path d="M13 16.6V13.1" stroke="#929699" stroke-width="1.5" stroke-linecap="round" stroke-linejoin="round"/>
<path d="M7 7V6C7 4.34315 8.34315 3 10 3H18C19.6569 3 21 4.34315 21 6V14C21 15.6569 19.6569 17 18 17H17" stroke="#929699" stroke-width="1.5" stroke-linecap="round" stroke-linejoin="round"/>
</svg>
