<svg width="32" height="32" viewBox="0 0 32 32" fill="none" xmlns="http://www.w3.org/2000/svg">
<rect x="0.5" y="0.5" width="31" height="31" rx="15.5" stroke="#C7C7C7"/>
<path d="M16 8.5C20.1517 8.5 23.5 11.8483 23.5 16C23.5 20.1517 20.1517 23.5 16 23.5" stroke="#323232" stroke-width="1.5" stroke-linecap="round" stroke-linejoin="round"/>
<path d="M16 23.5C11.8483 23.5 8.5 20.1517 8.5 16C8.5 11.8483 11.8483 8.5 16 8.5" stroke="#323232" stroke-width="1.5" stroke-linecap="round" stroke-linejoin="round"/>
<path fill-rule="evenodd" clip-rule="evenodd" d="M14.4734 9.38334C12.065 13.4042 12.065 18.5967 14.4734 22.6175C15.1784 23.795 16.8225 23.795 17.5275 22.6175C19.9359 18.5967 19.9359 13.4042 17.5275 9.38334C16.8217 8.20584 15.1784 8.20584 14.4734 9.38334Z" stroke="#323232" stroke-width="1.5" stroke-linecap="round" stroke-linejoin="round"/>
<path d="M8.5 16H23.5" stroke="#323232" stroke-width="1.5" stroke-linecap="round" stroke-linejoin="round"/>
</svg>
