<svg width="248" height="64" viewBox="0 0 248 64" fill="none" xmlns="http://www.w3.org/2000/svg">
<mask id="path-1-inside-1_1_459" fill="white">
<path d="M0 0H248V64H0V0Z"/>
</mask>
<path d="M248 63H0V65H248V63Z" fill="#3D414B" mask="url(#path-1-inside-1_1_459)"/>
<path d="M53.921 24.0489L61.7048 16.4236C63.501 14.664 63.501 11.9267 61.7048 10.167L50.6278 21.0183L48.632 19.0631L56.5156 11.3401C58.3119 9.58045 58.3119 6.84319 56.5156 5.08351L45.3389 16.0326L43.343 14.0774L51.3264 6.25663C53.1227 4.49695 53.1227 1.75967 51.3264 0L40.0499 10.8513L32.8649 3.71487C31.0686 1.9552 28.2744 1.9552 26.4782 3.71487L36.8565 13.8819L34.7609 15.9348L27.5759 8.89614C25.7796 7.13646 22.9854 7.13646 21.1892 8.89614L31.5676 19.0631L29.5717 21.0183L22.3867 13.9796C20.5904 12.22 17.7963 12.22 16 13.9796L26.1788 23.9511L18.395 31.5764C16.5987 33.336 16.5987 36.0733 18.395 37.833L29.4719 26.9817L31.4678 28.9369L23.5842 36.6599C21.7879 38.4195 21.7879 41.1568 23.5842 42.9165L34.7609 31.9674L36.7567 33.9226L28.7734 41.7434C26.9771 43.5031 26.9771 46.2403 28.7734 48L39.9501 37.0509L47.1351 44.1874C48.9314 45.9471 51.7256 45.9471 53.5218 44.1874L43.1434 34.0204L45.2391 31.9674L52.4241 39.0061C54.2204 40.7658 57.0145 40.7658 58.8108 39.0061L48.4324 28.8391L50.4283 26.8839L57.6133 33.9226C59.4095 35.6823 62.2037 35.6823 64 33.9226L53.921 24.0489ZM40.0499 17.0102L42.0457 18.9654L39.9501 21.0183L37.9543 19.0631L40.0499 17.0102ZM34.7609 25.8086L32.9647 24.0489L34.7609 22.2892L36.5572 24.1466L34.7609 25.8086ZM40.0499 30.8921L38.0541 28.9369L40.1497 26.8839L42.1455 28.8391L40.0499 30.8921ZM43.5426 23.9511L45.3389 22.1915L47.1351 23.9511L45.3389 25.7108L43.5426 23.9511Z" fill="#7B62FF"/>
<path d="M93.7955 24.2727C93.7955 26.1932 93.4261 27.821 92.6875 29.1562C91.9489 30.4915 90.9489 31.5057 89.6875 32.1989C88.4318 32.892 87.0227 33.2386 85.4602 33.2386C83.892 33.2386 82.4801 32.8892 81.2244 32.1903C79.9688 31.4915 78.9716 30.4773 78.233 29.1477C77.5 27.8125 77.1335 26.1875 77.1335 24.2727C77.1335 22.3523 77.5 20.7244 78.233 19.3892C78.9716 18.054 79.9688 17.0398 81.2244 16.3466C82.4801 15.6534 83.892 15.3068 85.4602 15.3068C87.0227 15.3068 88.4318 15.6534 89.6875 16.3466C90.9489 17.0398 91.9489 18.054 92.6875 19.3892C93.4261 20.7244 93.7955 22.3523 93.7955 24.2727ZM89.483 24.2727C89.483 23.1364 89.321 22.1761 88.9972 21.392C88.679 20.608 88.2188 20.0142 87.6165 19.6108C87.0199 19.2074 86.3011 19.0057 85.4602 19.0057C84.625 19.0057 83.9063 19.2074 83.304 19.6108C82.7017 20.0142 82.2386 20.608 81.9148 21.392C81.5966 22.1761 81.4375 23.1364 81.4375 24.2727C81.4375 25.4091 81.5966 26.3693 81.9148 27.1534C82.2386 27.9375 82.7017 28.5312 83.304 28.9347C83.9063 29.3381 84.625 29.5398 85.4602 29.5398C86.3011 29.5398 87.0199 29.3381 87.6165 28.9347C88.2188 28.5312 88.679 27.9375 88.9972 27.1534C89.321 26.3693 89.483 25.4091 89.483 24.2727ZM96.2585 15.5455H101.483L105.915 26.3523H106.119L110.551 15.5455H115.776V33H111.668V22.2784H111.523L107.33 32.8892H104.705L100.511 22.2188H100.366V33H96.2585V15.5455ZM134.881 24.2727C134.881 26.1932 134.512 27.821 133.773 29.1562C133.035 30.4915 132.035 31.5057 130.773 32.1989C129.518 32.892 128.109 33.2386 126.546 33.2386C124.978 33.2386 123.566 32.8892 122.31 32.1903C121.055 31.4915 120.058 30.4773 119.319 29.1477C118.586 27.8125 118.219 26.1875 118.219 24.2727C118.219 22.3523 118.586 20.7244 119.319 19.3892C120.058 18.054 121.055 17.0398 122.31 16.3466C123.566 15.6534 124.978 15.3068 126.546 15.3068C128.109 15.3068 129.518 15.6534 130.773 16.3466C132.035 17.0398 133.035 18.054 133.773 19.3892C134.512 20.7244 134.881 22.3523 134.881 24.2727ZM130.569 24.2727C130.569 23.1364 130.407 22.1761 130.083 21.392C129.765 20.608 129.305 20.0142 128.702 19.6108C128.106 19.2074 127.387 19.0057 126.546 19.0057C125.711 19.0057 124.992 19.2074 124.39 19.6108C123.788 20.0142 123.325 20.608 123.001 21.392C122.683 22.1761 122.523 23.1364 122.523 24.2727C122.523 25.4091 122.683 26.3693 123.001 27.1534C123.325 27.9375 123.788 28.5312 124.39 28.9347C124.992 29.3381 125.711 29.5398 126.546 29.5398C127.387 29.5398 128.106 29.3381 128.702 28.9347C129.305 28.5312 129.765 27.9375 130.083 27.1534C130.407 26.3693 130.569 25.4091 130.569 24.2727ZM146.779 20.7784C146.722 20.1534 146.469 19.6676 146.021 19.321C145.577 18.9688 144.944 18.7926 144.12 18.7926C143.575 18.7926 143.12 18.8636 142.756 19.0057C142.393 19.1477 142.12 19.3438 141.938 19.5938C141.756 19.8381 141.663 20.1193 141.657 20.4375C141.646 20.6989 141.697 20.929 141.81 21.1278C141.93 21.3267 142.1 21.5028 142.322 21.6562C142.549 21.804 142.822 21.9347 143.14 22.0483C143.458 22.1619 143.816 22.2614 144.214 22.3466L145.714 22.6875C146.577 22.875 147.339 23.125 147.998 23.4375C148.663 23.75 149.219 24.1222 149.668 24.554C150.123 24.9858 150.467 25.483 150.7 26.0455C150.933 26.608 151.052 27.2386 151.058 27.9375C151.052 29.0398 150.773 29.9858 150.222 30.7756C149.671 31.5653 148.879 32.1705 147.844 32.5909C146.816 33.0114 145.575 33.2216 144.12 33.2216C142.66 33.2216 141.387 33.0028 140.302 32.5653C139.217 32.1278 138.373 31.4631 137.771 30.571C137.168 29.679 136.859 28.5511 136.842 27.1875H140.881C140.915 27.75 141.066 28.2188 141.333 28.5938C141.6 28.9688 141.967 29.2528 142.433 29.446C142.904 29.6392 143.45 29.7358 144.069 29.7358C144.637 29.7358 145.12 29.6591 145.518 29.5057C145.921 29.3523 146.231 29.1392 146.447 28.8665C146.663 28.5937 146.773 28.2812 146.779 27.929C146.773 27.5994 146.671 27.3182 146.472 27.0852C146.273 26.8466 145.967 26.642 145.552 26.4716C145.143 26.2955 144.62 26.1335 143.984 25.9858L142.16 25.5597C140.648 25.2131 139.458 24.6534 138.589 23.8807C137.719 23.1023 137.288 22.0511 137.293 20.7273C137.288 19.6477 137.577 18.7017 138.163 17.8892C138.748 17.0767 139.558 16.4432 140.592 15.9886C141.626 15.5341 142.805 15.3068 144.129 15.3068C145.481 15.3068 146.654 15.5369 147.648 15.9972C148.648 16.4517 149.424 17.0909 149.975 17.9148C150.526 18.7386 150.808 19.6932 150.819 20.7784H146.779ZM153.188 33V15.5455H157.407V22.9261H157.637L163.407 15.5455H168.376L162.188 23.3352L168.487 33H163.441L159.094 26.1392L157.407 28.2699V33H153.188ZM174.259 15.5455V33H170.04V15.5455H174.259ZM176.907 33V15.5455H181.126V29.5739H188.387V33H176.907ZM190.571 33V15.5455H194.79V29.5739H202.051V33H190.571ZM220.03 24.2727C220.03 26.1932 219.661 27.821 218.922 29.1562C218.183 30.4915 217.183 31.5057 215.922 32.1989C214.666 32.892 213.257 33.2386 211.695 33.2386C210.126 33.2386 208.714 32.8892 207.459 32.1903C206.203 31.4915 205.206 30.4773 204.467 29.1477C203.734 27.8125 203.368 26.1875 203.368 24.2727C203.368 22.3523 203.734 20.7244 204.467 19.3892C205.206 18.054 206.203 17.0398 207.459 16.3466C208.714 15.6534 210.126 15.3068 211.695 15.3068C213.257 15.3068 214.666 15.6534 215.922 16.3466C217.183 17.0398 218.183 18.054 218.922 19.3892C219.661 20.7244 220.03 22.3523 220.03 24.2727ZM215.717 24.2727C215.717 23.1364 215.555 22.1761 215.232 21.392C214.913 20.608 214.453 20.0142 213.851 19.6108C213.254 19.2074 212.536 19.0057 211.695 19.0057C210.859 19.0057 210.141 19.2074 209.538 19.6108C208.936 20.0142 208.473 20.608 208.149 21.392C207.831 22.1761 207.672 23.1364 207.672 24.2727C207.672 25.4091 207.831 26.3693 208.149 27.1534C208.473 27.9375 208.936 28.5312 209.538 28.9347C210.141 29.3381 210.859 29.5398 211.695 29.5398C212.536 29.5398 213.254 29.3381 213.851 28.9347C214.453 28.5312 214.913 27.9375 215.232 27.1534C215.555 26.3693 215.717 25.4091 215.717 24.2727Z" fill="white"/>
</svg>
