<svg width="32" height="32" viewBox="0 0 32 32" fill="none" xmlns="http://www.w3.org/2000/svg">
<g id="Group">
<g id="Group_2">
<path id="Path" d="M10 4H6.66667C5.19333 4 4 5.19333 4 6.66667V10" stroke="white" stroke-width="1.5" stroke-linecap="round" stroke-linejoin="round"/>
<path id="Path_2" d="M4 22V25.3333C4 26.8067 5.19333 28 6.66667 28H10" stroke="white" stroke-width="1.5" stroke-linecap="round" stroke-linejoin="round"/>
<path id="Path_3" d="M22 28H25.3333C26.8067 28 28 26.8067 28 25.3333V22" stroke="white" stroke-width="1.5" stroke-linecap="round" stroke-linejoin="round"/>
<path id="Path_4" d="M28 10V6.66667C28 5.19333 26.8067 4 25.3333 4H22" stroke="white" stroke-width="1.5" stroke-linecap="round" stroke-linejoin="round"/>
<path id="Path_5" d="M17.7827 15.0907C18.7392 16.0472 18.7392 17.598 17.7827 18.5546C16.8262 19.5111 15.2754 19.5111 14.3188 18.5546C13.3623 17.598 13.3623 16.0472 14.3188 15.0907C15.2754 14.1342 16.8262 14.1342 17.7827 15.0907" stroke="white" stroke-width="1.5" stroke-linecap="round" stroke-linejoin="round"/>
<path id="Path_6" fill-rule="evenodd" clip-rule="evenodd" d="M23.5 13.5V21C23.5 21.92 22.7533 22.6667 21.8333 22.6667H10.1667C9.24667 22.6667 8.5 21.92 8.5 21V13.5C8.5 12.58 9.24667 11.8333 10.1667 11.8333H11.8333L13.052 9.74668C13.2013 9.49068 13.4747 9.33334 13.772 9.33334H18.192C18.484 9.33334 18.7547 9.48668 18.9067 9.73734L20.168 11.8333H21.8347C22.7533 11.8333 23.5 12.58 23.5 13.5V13.5Z" stroke="white" stroke-width="1.5" stroke-linecap="round" stroke-linejoin="round"/>
</g>
</g>
</svg>
